<svg width="79.000000" height="96.000000" viewBox="0 0 79 96" fill="none" xmlns="http://www.w3.org/2000/svg"
>
    <desc>
        Created with Pixso.
    </desc>
    <defs>
        <clipPath id="clip220_459">
            <rect id="logo" width="79.000000" height="96.000000" fill="white" fill-opacity="0"/>
        </clipPath>
    </defs>
    <rect id="logo" width="79.000000" height="96.000000" fill="#FFFFFF" fill-opacity="0"/>
    <g clip-path="url(#clip220_459)">
        <path id="Vector"
              d="M13.2412 77.6909C13.5254 77.4072 13.7329 77.0996 13.8662 76.77C14.0015 76.4385 14.0332 76.0688 13.9663 75.6611C13.8979 75.2534 13.7061 74.7979 13.3921 74.2939C13.0762 73.7905 12.6079 73.2251 11.9844 72.5977C11.3579 71.9648 10.728 71.3311 10.0962 70.6953C9.46484 70.0596 8.90479 69.4937 8.41455 69C7.95752 69.4556 7.51318 69.9019 7.07666 70.3369C6.64209 70.7715 6.1499 71.2642 5.59961 71.8149L2.71973 74.6973C2.18799 75.2275 1.71387 75.7041 1.29492 76.123C0.875977 76.542 0.444336 76.9756 0 77.4199C0.255371 77.6763 0.541016 77.9648 0.858398 78.2852C1.17578 78.6055 1.5249 78.9561 1.90576 79.3398C2.28467 79.7222 2.6958 80.1348 3.13379 80.5776C3.88574 81.3359 4.56348 81.9062 5.1665 82.2886C5.76758 82.6694 6.31348 82.8975 6.79932 82.9692C7.28613 83.0405 7.73193 82.9883 8.13965 82.8081C8.54785 82.6299 8.93164 82.3589 9.29346 81.9971C9.69824 81.5908 9.96777 81.1846 10.0996 80.7769C10.231 80.3691 10.2485 79.9531 10.1484 79.5293C10.0488 79.1055 9.85986 78.6704 9.58203 78.2246L9.75342 78.0522C10.1138 78.2817 10.4961 78.4316 10.8994 78.502C11.3022 78.5718 11.7021 78.543 12.1035 78.4175C12.5034 78.2915 12.8828 78.0493 13.2412 77.6909ZM6.98779 79.2603C6.7959 79.4531 6.59619 79.5757 6.38965 79.6279C6.18359 79.6807 5.9707 79.6616 5.75342 79.5674C5.53613 79.4736 5.31396 79.3125 5.08545 79.0835L4.10303 78.0938C4.32715 77.8691 4.55713 77.6396 4.79346 77.4038C5.02979 77.1685 5.30615 76.8911 5.62646 76.5708L5.82666 76.3701L6.86084 77.4121C7.18604 77.7402 7.35938 78.0605 7.37842 78.3711C7.39746 78.6851 7.26709 78.9795 6.98779 79.2603ZM10.1104 75.8154C9.92969 75.9971 9.73926 76.1152 9.53955 76.1694C9.33936 76.2251 9.1333 76.2139 8.92383 76.1421C8.71436 76.0688 8.50488 75.9272 8.29688 75.7183L7.39111 74.8057L7.45605 74.7402C7.79883 74.3979 8.09863 74.0981 8.35547 73.8403C8.61279 73.582 8.86182 73.3335 9.10156 73.0928L10.1011 74.0996C10.3945 74.396 10.5376 74.6875 10.5264 74.979C10.5166 75.269 10.377 75.5498 10.1104 75.8154Z"
              fill="#FFFFFF" fill-opacity="1.000000" fill-rule="nonzero"/>
        <path id="Vector"
              d="M23.1328 79.6377C22.6475 79.0889 21.9214 78.5635 20.958 78.0605C20.6006 77.8745 20.2417 77.7153 19.8828 77.5801C19.5225 77.4463 19.1699 77.3364 18.8218 77.249C18.4741 77.1631 18.1426 77.0977 17.8267 77.0566C17.5098 77.0151 17.2114 76.9961 16.9292 77.0005L15.915 79.8032C16.269 79.7559 16.6074 79.7334 16.9292 79.7363C17.25 79.7397 17.5513 79.7637 17.833 79.8066C18.1138 79.8496 18.3765 79.9082 18.6187 79.9849C18.8604 80.0596 19.0801 80.1504 19.2788 80.2539C19.5674 80.4033 19.7949 80.5723 19.9629 80.7568C20.1313 80.9414 20.2324 81.1401 20.2676 81.3486C20.3027 81.5591 20.2612 81.7754 20.144 81.9966C20.0317 82.208 19.873 82.3643 19.668 82.4658C19.4629 82.5664 19.2212 82.603 18.9404 82.5728C18.6616 82.5439 18.3477 82.439 18 82.2573C17.7773 82.1411 17.583 82.0396 17.4199 81.9551C17.2563 81.8691 17.0991 81.7881 16.9502 81.7114L15.915 83.6724C16.1138 83.7759 16.314 83.8794 16.5142 83.9844C16.7163 84.0894 16.9473 84.2104 17.2114 84.3472C17.7275 84.6162 18.0674 84.8965 18.2305 85.189C18.3926 85.4819 18.3799 85.8081 18.189 86.168C18.0767 86.3794 17.9263 86.5435 17.7388 86.6597C17.5513 86.7759 17.3223 86.8252 17.0527 86.8076C16.7837 86.7886 16.4678 86.6865 16.104 86.4976C15.8911 86.3857 15.6699 86.2461 15.4424 86.0771C15.2148 85.9087 14.9888 85.7173 14.7661 85.5044C14.5435 85.291 14.3267 85.062 14.1172 84.8169C13.9072 84.5718 13.71 84.314 13.5239 84.04L12 86.5117C12.1362 86.709 12.3223 86.9238 12.5576 87.1562C12.7915 87.3887 13.0576 87.624 13.3525 87.8628C13.6475 88.1016 13.9585 88.3276 14.2852 88.5425C14.6123 88.7559 14.9341 88.9468 15.2529 89.1123C16.3154 89.666 17.2339 89.9604 18.0078 89.9956C18.7803 90.0288 19.4292 89.8745 19.9551 89.5278C20.479 89.1807 20.8955 88.7178 21.2031 88.1353C21.4868 87.5972 21.625 87.1084 21.6187 86.6675C21.6104 86.2271 21.4917 85.8208 21.2627 85.4531C21.0337 85.0854 20.7256 84.7437 20.3398 84.4302L20.4487 84.2231C21.0815 84.3774 21.6904 84.3613 22.2739 84.1738C22.8574 83.9858 23.3281 83.5532 23.6875 82.8721C23.9565 82.3643 24.0513 81.834 23.9741 81.2852C23.9004 80.7358 23.6182 80.187 23.1328 79.6377Z"
              fill="#FFFFFF" fill-opacity="1.000000" fill-rule="nonzero"/>
        <path id="Vector"
              d="M25.8799 83.9517C25.7637 84.5864 25.6323 85.3096 25.4858 86.1196L24.7222 90.3164C24.5806 91.0913 24.4551 91.7861 24.3438 92.3984C24.2319 93.0112 24.1177 93.6406 24 94.29L27.2466 95C27.3643 94.3506 27.4805 93.7192 27.5918 93.1084C27.7036 92.4956 27.8301 91.8027 27.9707 91.0278L28.6318 87.3984C28.7388 86.8159 28.8364 86.2788 28.9253 85.7866L29.5225 85.917C30.3608 86.1011 31.0894 86.2603 31.7046 86.394C32.3203 86.5298 32.8989 86.6553 33.4395 86.7739L34 83.6973L26.2388 82C26.1138 82.666 25.9961 83.3159 25.8799 83.9517Z"
              fill="#FFFFFF" fill-opacity="1.000000" fill-rule="nonzero"/>
        <path id="Vector"
              d="M47.6172 89.9785L47.21 85.9512C47.1313 85.1743 47.061 84.481 46.9985 83.8721C46.9365 83.2627 46.8745 82.6392 46.8091 82L37.5591 82.8765C37.5981 83.603 37.6362 84.3452 37.6719 85.103C37.708 85.8628 37.7456 86.5952 37.7832 87.3057C37.8325 88.3643 37.8306 89.2427 37.7783 89.939C37.7261 90.6367 37.6001 91.165 37.4038 91.5244C37.2056 91.8818 36.9194 92.0796 36.5449 92.1147C36.4824 92.1211 36.4072 92.124 36.3208 92.124C36.2339 92.124 36.1274 92.1211 36 92.1162L36.1553 94.9312C36.3008 94.9502 36.4614 94.9678 36.6348 94.9819C36.8081 94.9961 36.9961 95.0024 37.1978 94.999C37.3989 94.9976 37.6133 94.9849 37.8403 94.9629C38.6665 94.8853 39.3081 94.6904 39.7627 94.3804C40.2178 94.0703 40.54 93.6382 40.7329 93.0879C40.9243 92.5356 41.0322 91.8628 41.0586 91.0703C41.0845 90.2773 41.083 89.3643 41.0537 88.3325C41.0259 87.4341 41.0029 86.5713 40.9863 85.7471C40.9834 85.6333 40.98 85.5161 40.9766 85.4023L43.5532 85.1582C43.606 85.6665 43.6611 86.2251 43.7236 86.8374L44.0767 90.3184C44.1523 91.062 44.2192 91.7285 44.2783 92.3154C44.3369 92.9023 44.3994 93.5068 44.4614 94.1304L48 93.7949C47.936 93.1733 47.8755 92.5669 47.8149 91.98C47.7593 91.3867 47.6924 90.7222 47.6172 89.9785Z"
              fill="#FFFFFF" fill-opacity="1.000000" fill-rule="nonzero"/>
        <path id="Vector"
              d="M61.3208 85.1675L59.5522 81.5503C59.2109 80.8521 58.9067 80.2295 58.6382 79.6821C58.3711 79.1357 58.0962 78.5742 57.8164 78C57.4683 78.1597 57.0396 78.3535 56.5332 78.5869C56.0269 78.8184 55.4897 79.064 54.9253 79.3223C54.3589 79.5801 53.8071 79.832 53.27 80.0776C52.3496 80.4985 51.6084 80.9541 51.0488 81.4438C50.4888 81.9336 50.1523 82.4873 50.0376 83.1055C49.9243 83.7251 50.0669 84.4448 50.4697 85.2661C50.7041 85.7466 50.9888 86.1484 51.3223 86.4707C51.6553 86.7949 52.042 87.0278 52.4824 87.1719C52.9111 87.311 53.3896 87.3535 53.9175 87.3003L53.749 89.0103C53.7036 89.4312 53.6582 89.8833 53.6099 90.3682C53.5615 90.8535 53.5142 91.3257 53.4673 91.7876C53.4204 92.249 53.3818 92.6528 53.3511 93L56.8374 91.4058C56.8745 90.9048 56.9087 90.4248 56.9395 89.9692C56.9702 89.5142 57.0024 89.0649 57.0381 88.6255L57.1626 86.5977L58.0249 86.2031L58.2144 86.5898C58.541 87.2578 58.834 87.8555 59.0913 88.3828C59.3486 88.9116 59.6152 89.4531 59.8887 90.0132L63 88.5908C62.7266 88.0308 62.4614 87.4878 62.2021 86.9604C61.9404 86.4331 61.6475 85.8354 61.3208 85.1675ZM55.8896 84.7622C55.4751 84.9517 55.1001 85.0156 54.7666 84.9531C54.4316 84.8906 54.1436 84.6089 53.8994 84.1099C53.7876 83.8828 53.728 83.6782 53.7183 83.498C53.7085 83.3184 53.7358 83.1553 53.7993 83.0112C53.8638 82.8677 53.9575 82.7422 54.082 82.6377C54.207 82.5327 54.3511 82.4419 54.5142 82.3667L55.8506 81.7568C56.0996 82.2651 56.3765 82.833 56.6855 83.4653L57.0591 84.2305L55.8896 84.7622Z"
              fill="#FFFFFF" fill-opacity="1.000000" fill-rule="nonzero"/>
        <path id="Vector"
              d="M76.9526 80.3833L79 78.2788C78.6816 77.9614 78.3628 77.646 78.0459 77.3306C77.729 77.0156 77.4116 76.7002 77.0918 76.3828C76.7651 76.0576 76.4351 75.731 76.1021 75.3994C75.7686 75.0693 75.437 74.7393 75.1055 74.4092C74.7466 74.7769 74.3813 75.1543 74.0156 75.5283C73.6714 75.1851 73.2925 74.811 72.8838 74.4023L70.3413 71.876C69.772 71.3105 69.2642 70.8057 68.8193 70.3628C68.373 69.9185 67.917 69.4658 67.4478 69L61 75.6279C61.4316 76.1069 61.8848 76.6084 62.3569 77.1328C62.8291 77.6592 63.3145 78.1968 63.8105 78.7461C64.4932 79.5044 65.0254 80.1821 65.4038 80.7803C65.7822 81.3784 66.041 81.8979 66.1782 82.3394C66.3145 82.7739 66.3594 83.1416 66.3174 83.4375C66.0928 83.668 65.8647 83.9014 65.6431 84.1304C65.9731 84.459 66.3062 84.7891 66.6392 85.1206C66.9727 85.4526 67.3022 85.7793 67.6289 86.1045C67.9478 86.4214 68.2661 86.7368 68.5835 87.0522C68.9004 87.3657 69.2173 87.6831 69.5376 88L71.585 85.895L69.8643 83.9668L75.0117 78.6772L76.9526 80.3833ZM68.8242 80.8652C68.769 80.4995 68.6772 80.1562 68.5459 79.8359C68.3667 79.3965 68.1079 78.9502 67.77 78.499C67.4316 78.0464 67.0063 77.5381 66.4937 76.9731C66.0571 76.4878 65.6187 75.999 65.1772 75.5103L67.0483 73.5889C67.4204 73.958 67.8296 74.3647 68.2778 74.8091L70.4204 76.9385C70.8311 77.3472 71.208 77.7212 71.5527 78.0645L68.981 80.707C68.9292 80.7573 68.876 80.813 68.8242 80.8652Z"
              fill="#FFFFFF" fill-opacity="1.000000" fill-rule="nonzero"/>
        <path id="Vector"
              d="M9.94873 13.8218C10.3374 13.5366 10.7852 13.209 11.293 12.8369L11.6138 12.6025C11.9082 12.9976 12.229 13.4287 12.5781 13.8955L14.751 16.8091C15.2158 17.4321 15.6309 17.9893 15.9961 18.481C16.3633 18.9727 16.7407 19.479 17.1289 20L20 17.8989C19.6113 17.3779 19.2344 16.8716 18.8672 16.3799C18.5 15.8882 18.085 15.3311 17.6221 14.7085L15.4487 11.7949C15.1001 11.3262 14.7793 10.8965 14.4849 10.5L14.8057 10.2642C15.3135 9.89209 15.7617 9.56445 16.1499 9.28076C16.5386 8.99561 16.9077 8.7251 17.2563 8.47119L15.416 6L7 12.1602L8.84229 14.6313C9.18945 14.3774 9.56006 14.1069 9.94873 13.8218Z"
              fill="#FFFFFF" fill-opacity="1.000000" fill-rule="nonzero"/>
        <path id="Vector"
              d="M21.1274 8.00342L22.2822 12.1157C22.4951 12.8735 22.686 13.5513 22.853 14.1504C23.0215 14.75 23.1934 15.3657 23.373 16C23.7197 15.8911 24.1094 15.7705 24.542 15.6367C24.9741 15.5029 25.4497 15.354 25.9668 15.1934C26.4849 15.0327 27.0435 14.8584 27.6411 14.6729C28.6655 14.353 29.4893 14.0117 30.1123 13.6436C30.7344 13.2754 31.1938 12.8853 31.4897 12.4688C31.7852 12.0537 31.9507 11.6118 31.9888 11.1445C32.0254 10.6777 31.9717 10.1855 31.8267 9.67041C31.6646 9.09131 31.4355 8.63916 31.1411 8.31152C30.8457 7.98486 30.4893 7.76074 30.0693 7.6416C29.6499 7.52148 29.1772 7.47949 28.6543 7.51318L28.5859 7.26855C28.9595 7.04785 29.2729 6.76807 29.5254 6.43018C29.7783 6.09229 29.9453 5.70557 30.0264 5.27051C30.1074 4.83496 30.0757 4.36328 29.9326 3.85254C29.8198 3.44775 29.6499 3.10107 29.4224 2.81006C29.1963 2.52051 28.8862 2.30469 28.4966 2.16406C28.1055 2.02344 27.6143 1.97314 27.021 2.01318C26.4292 2.05371 25.709 2.20605 24.8599 2.47021C24.0059 2.73633 23.1489 3.00244 22.29 3.26855C21.4297 3.53662 20.6665 3.77246 20 3.97998C20.1831 4.63281 20.3608 5.26855 20.5361 5.88965C20.7095 6.51221 20.9062 7.2168 21.1274 8.00342ZM27.7319 9.63184C28.0146 9.77051 28.2119 10.0386 28.3232 10.4385C28.3999 10.7129 28.4126 10.9604 28.3613 11.1782C28.3091 11.396 28.1914 11.5835 28.0054 11.7388C27.8193 11.8945 27.5713 12.02 27.2627 12.1172L25.9253 12.5322C25.8345 12.2124 25.7422 11.8828 25.6484 11.5464C25.5532 11.2085 25.4419 10.8135 25.3145 10.3584L25.2334 10.0718L26.6426 9.6333C27.0859 9.49463 27.4487 9.49463 27.7319 9.63184ZM25.2827 4.96924C25.6836 4.84521 26.0078 4.86035 26.2578 5.01416C26.5073 5.16797 26.6855 5.4375 26.7935 5.81934C26.8667 6.07715 26.8779 6.31445 26.8315 6.52734C26.7842 6.74121 26.6772 6.92725 26.5137 7.08447C26.3481 7.24365 26.1255 7.36572 25.8428 7.45459L24.6104 7.83789L24.5845 7.74561C24.4463 7.25684 24.3271 6.82861 24.2236 6.46045C24.1201 6.09229 24.02 5.7373 23.9248 5.39404L25.2827 4.96924Z"
              fill="#FFFFFF" fill-opacity="1.000000" fill-rule="nonzero"/>
        <path id="Vector"
              d="M36.1558 10.5352C36.623 11.1895 37.2529 11.729 38.0459 12.1543C38.8389 12.5776 39.8062 12.8452 40.9463 12.9546C42.3496 13.0894 43.5557 12.9248 44.5591 12.4565C45.5645 11.9897 46.3525 11.2959 46.9268 10.3726C47.499 9.44922 47.8447 8.36963 47.9614 7.13086C48.0454 6.23926 47.9927 5.39062 47.8032 4.5835C47.6143 3.77637 47.2803 3.0542 46.8032 2.41162C46.3262 1.77051 45.6958 1.24219 44.9146 0.829102C44.1313 0.413574 43.187 0.152832 42.0815 0.046875C40.6255 -0.0927734 39.395 0.0800781 38.3931 0.566406C37.3896 1.05322 36.6084 1.76367 36.0474 2.69727C35.4878 3.63037 35.1509 4.69824 35.0371 5.90186C34.9565 6.74707 35.0073 7.56592 35.187 8.35986C35.3647 9.15527 35.6885 9.87939 36.1558 10.5352ZM38.7354 6.24268C38.7812 5.75586 38.8867 5.30273 39.0547 4.88428C39.2207 4.46582 39.438 4.10547 39.7046 3.80469C39.9692 3.50244 40.2837 3.27832 40.6436 3.12891C41.0039 2.97949 41.4053 2.92627 41.8481 2.96924C42.271 3.01074 42.644 3.13721 42.9648 3.34814C43.2856 3.56055 43.5508 3.83789 43.7598 4.18164C43.9668 4.52539 44.1152 4.91895 44.2036 5.3623C44.2925 5.80566 44.3125 6.27588 44.2646 6.77393C44.2188 7.25391 44.1167 7.70068 43.9604 8.11572C43.8022 8.5293 43.5903 8.88965 43.3237 9.19336C43.0586 9.49707 42.7461 9.72656 42.3911 9.87744C42.0356 10.0303 41.6309 10.085 41.1782 10.0405C40.7261 9.99707 40.3345 9.86572 40.0054 9.64648C39.6763 9.42773 39.4116 9.14355 39.209 8.79492C39.0083 8.44629 38.8672 8.05273 38.7866 7.61572C38.7075 7.18066 38.6895 6.72217 38.7354 6.24268Z"
              fill="#FFFFFF" fill-opacity="1.000000" fill-rule="nonzero"/>
        <path id="Vector"
              d="M60.2114 5.34668C60.9497 5.72852 61.6172 5.94336 62.2129 5.98975C62.8101 6.03613 63.3379 5.92432 63.8013 5.65234C64.2646 5.38086 64.6636 4.95703 65 4.38086L62.8853 3.28662C62.6875 3.63135 62.4326 3.86719 62.1216 3.99414C61.8105 4.12109 61.4541 4.08057 61.0532 3.875C60.6528 3.66748 60.4263 3.40039 60.3765 3.07324C60.3262 2.74658 60.4077 2.39551 60.623 2.01953L58.4644 1C58.1421 1.5835 57.9883 2.13428 58.0005 2.65234C58.0132 3.17041 58.2017 3.65527 58.5679 4.10596C58.9355 4.55566 59.4824 4.96875 60.2114 5.34668Z"
              fill="#FFFFFF" fill-opacity="1.000000" fill-rule="nonzero"/>
        <path id="Vector"
              d="M53.4404 14.1479C54.0957 13.7852 54.8115 13.395 55.5879 12.9731L58.1392 11.5767L58.3369 11.6885L57.1997 13.8379C56.8364 14.5239 56.5127 15.1372 56.2275 15.6758C55.9419 16.2153 55.647 16.7734 55.3423 17.3477L58.2905 19C58.5918 18.4307 58.8853 17.876 59.1689 17.3394C59.4526 16.8027 59.7749 16.1943 60.1353 15.5117L62.085 11.8276C62.4614 11.1172 62.7979 10.4824 63.0928 9.92432C63.3877 9.3667 63.6909 8.79541 64 8.21143L61.4492 6.78076C60.7075 7.1958 60.0093 7.58447 59.354 7.94727C58.6987 8.30811 58.0464 8.6709 57.3975 9.03174L54.8784 10.4248L54.665 10.3052L55.7349 8.28516C56.1108 7.57471 56.4473 6.93799 56.7441 6.37842C57.0405 5.81885 57.3452 5.24316 57.6577 4.65234L54.7095 3C54.4004 3.58594 54.0972 4.15674 53.8022 4.71289C53.5073 5.271 53.1724 5.9043 52.7964 6.61475L50.8462 10.3003C50.4858 10.981 50.1641 11.5898 49.8784 12.1265C49.5947 12.6631 49.3013 13.2178 49 13.7871L51.5205 15.1997C52.144 14.8618 52.7852 14.5088 53.4404 14.1479Z"
              fill="#FFFFFF" fill-opacity="1.000000" fill-rule="nonzero"/>
        <path id="Vector"
              d="M37.812 74C39.3091 73.9985 42.0913 73.8701 45.4214 72.8838C47.3037 72.3262 48.8452 71.6455 50 71.062C41.666 67.708 33.334 64.354 25 61C25.4458 64.4678 25.8916 67.9355 26.3379 71.4033C29.8208 73.0703 33.7095 74.0034 37.812 74Z"
              fill="#FFFFFF" fill-opacity="1.000000" fill-rule="nonzero"/>
        <path id="Vector"
              d="M63.813 54.3447C64.5649 52.0293 64.8911 49.8682 65 48C63.9624 49.5894 62.3823 51.7285 60.1094 53.9355C54.811 59.0815 49.2075 61.2441 46.957 62.0083C44.6689 62.7856 41.2642 63.6777 37 63.8511C42.0693 65.5679 47.1372 67.2832 52.2065 69C55.0234 67.1416 61.1714 62.4829 63.813 54.3447Z"
              fill="#FFFFFF" fill-opacity="1.000000" fill-rule="nonzero"/>
        <path id="Vector"
              d="M51.5312 22.7637C50.0884 21.8809 48.0493 20.8267 45.4717 20.0576C44.2344 19.688 41.5776 18.9985 38.1191 19C33.7578 19.0034 29.6406 20.0908 26 22.0161C35 25.6772 44 29.3389 53 33C52.5103 29.5879 52.021 26.1758 51.5312 22.7637Z"
              fill="#FFFFFF" fill-opacity="1.000000" fill-rule="nonzero"/>
        <path id="Vector"
              d="M12.0889 38.1528C11.6182 39.73 11.083 42.0698 11 45C18.3335 38.9668 25.6665 32.9336 33 26.9009C29.9614 25.6001 26.9229 24.3008 23.8848 23C22.7314 23.6909 21.145 24.7622 19.4707 26.3247C14.3545 31.0952 12.5537 36.5952 12.0889 38.1528Z"
              fill="#FFFFFF" fill-opacity="1.000000" fill-rule="nonzero"/>
        <path id="Vector"
              d="M28.2871 61.2251C31.2705 62.5361 34.5049 63.1294 37.7163 62.9956C43.6123 62.7524 49.4258 60.0513 53.4492 54.8208C54.168 53.8901 54.8281 52.8794 55.4209 51.7861L55.4238 51.7778C55.4478 51.7358 55.4717 51.6924 55.4941 51.6504C55.7466 51.1812 55.9863 50.6943 56.21 50.1958C56.4321 49.7104 56.6382 49.2109 56.8335 48.6963C56.918 48.4722 56.9292 48.2222 56.8491 47.9868C56.8315 47.9243 56.8047 47.8643 56.7725 47.8032C56.5459 47.3921 56.3091 46.9888 56.0601 46.5952C55.8647 46.2793 55.665 45.9712 55.459 45.6665C54.2944 43.9429 52.9473 42.374 51.4102 40.9419C48.1953 37.9106 43.9033 35.8691 39.4419 35.9482C36.0977 35.9097 32.5698 36.895 30.0928 39.2827C27.0396 42.1499 25.3345 46.8032 26.8203 50.8813C26.8618 51.0073 26.9082 51.1299 26.958 51.2505C29.1948 57.0166 36.4639 59.998 41.9365 56.9136C43.0342 56.3071 43.916 55.4688 44.5825 54.4854C45.4165 53.2549 45.9136 51.8003 46.0669 50.2944C46.1929 49.0947 46.1021 47.8643 45.7935 46.6924C45.2485 44.4204 43.6206 42.4175 41.6025 41.2632C40.5479 40.6631 39.3384 40.3325 38.124 40.2778C36.7959 40.2183 35.4585 40.4873 34.2891 41.1084C33.7441 41.395 33.2344 41.7563 32.7808 42.1982C32.2183 42.7095 31.7339 43.314 31.3555 43.9814C30.542 45.4087 30.2017 47.1113 30.561 48.7368C31.0581 51.0972 32.707 53.147 34.9775 54.0127C36.3628 54.54 37.9175 54.5063 39.3013 53.9932C40.1885 53.666 41.0049 53.1436 41.6616 52.4517C41.9507 52.1567 42.1919 51.8325 42.3916 51.4829C42.6587 51.0215 42.8472 50.522 42.9624 50.0059C43.2017 48.9272 43.1221 47.7725 42.7383 46.7324C42.5884 46.3247 42.3901 45.936 42.1489 45.5747C41.8276 45.0537 41.4106 44.5879 40.9312 44.2026C40.2153 43.6235 39.3574 43.2207 38.4644 43.0591C37.9785 42.9722 37.4814 42.9561 36.9927 43.0239C36.5371 43.0835 36.0898 43.2188 35.6602 43.4287C35.2271 43.646 34.8208 43.9302 34.4648 44.2656C33.9341 44.7637 33.5142 45.3794 33.2744 46.0615C33.1128 46.5229 33.0361 47.0181 33.0684 47.5273C33.1606 49.6782 34.8994 51.8164 37.146 51.7681C37.2656 51.7666 37.3857 51.7554 37.5024 51.7393C38.0215 51.6714 38.5264 51.4927 38.9658 51.2134C39.3813 50.9473 39.7378 50.5913 39.9917 50.1523C40.0957 49.9751 40.1851 49.7881 40.2539 49.5928C40.3687 49.2739 40.4326 48.9302 40.4438 48.5898C40.4614 48.063 40.3481 47.5337 40.0796 47.0776C40.0239 46.9839 39.9629 46.8887 39.8926 46.8018C39.5361 46.3457 39.0635 46.0034 38.5439 45.8101C38.0474 45.6201 37.5068 45.5684 36.9814 45.6812C36.8726 45.7056 36.7642 45.7344 36.6587 45.7729C36.4414 45.8535 36.2354 45.999 36.0659 46.1812C35.8022 46.4648 35.625 46.8389 35.6138 47.1919C35.5913 47.6484 35.6758 48.2017 36.168 48.3467C36.4478 48.4224 36.7339 48.3013 36.8838 48.0693C36.9238 48.0112 36.9526 47.9468 36.9702 47.874L37.0195 47.6885C37.0596 47.5405 37.0947 47.3613 37.1685 47.2695C37.2178 47.2212 37.2705 47.2017 37.3457 47.1938C37.3794 47.189 37.4175 47.187 37.4609 47.1855C38.3252 47.2017 38.8525 47.7808 38.8794 48.4609C38.8926 48.7627 38.8047 49.0884 38.603 49.3882C38.5552 49.4658 38.4946 49.543 38.4292 49.6157C37.7881 50.1943 37.1011 50.2832 36.4907 50.0669C35.5337 49.7285 34.7686 48.6431 34.6885 47.5386C34.6499 46.9971 34.7749 46.4536 35.123 45.9873C35.353 45.6636 35.6709 45.354 36.0273 45.1201C36.2559 44.9683 36.5005 44.8477 36.7529 44.7715C36.8901 44.73 37.0327 44.6978 37.1748 44.6782C37.7246 44.5991 38.2998 44.6831 38.8252 44.8848C39.0776 44.9829 39.3223 45.1055 39.5459 45.2539C39.9292 45.5068 40.2666 45.8311 40.543 46.2021C40.96 46.7549 41.2461 47.4097 41.3613 48.0903C41.4233 48.4385 41.436 48.7979 41.4009 49.1514C41.3789 49.3755 41.334 49.5962 41.2686 49.814C41.1104 50.3638 40.8179 50.8477 40.439 51.2476C40.0972 51.6069 39.6851 51.9038 39.2378 52.1294C38.627 52.4375 37.9497 52.6147 37.2832 52.6455C35.4971 52.7212 33.8413 51.6104 32.9434 50.0493C31.8457 48.2466 32.0376 46.0342 33.228 44.4043C33.4517 44.0947 33.7104 43.8057 34.0063 43.5464C34.3193 43.2446 34.6675 42.9917 35.0366 42.7852C35.9907 42.2612 37.1011 42.0562 38.1895 42.1401C38.7837 42.1855 39.3716 42.3174 39.9248 42.5322C40.1914 42.6353 40.4502 42.7563 40.6982 42.8965C41.7397 43.4849 42.6475 44.4316 43.2944 45.4829C43.7612 46.2617 44.0361 47.2275 44.1509 48.2109C44.1846 48.4834 44.2036 48.7563 44.21 49.0303C44.2197 49.3188 44.2148 49.5996 44.1973 49.8721C44.1128 51.146 43.7324 52.2534 43.1299 53.166C41.8247 55.1626 39.4805 56.2427 36.916 56.1543C36.3711 56.1362 35.8179 56.064 35.2622 55.9365C35.0669 55.8945 34.8721 55.8428 34.6772 55.7847C29.1133 54.021 26.5347 48.1191 29.7256 43.0366C30.5435 41.6387 31.6123 40.5664 32.8413 39.7861C35.0415 38.3813 37.7549 37.9009 40.4697 38.1138C41.0479 38.1592 41.6265 38.2349 42.2017 38.3428C42.2432 38.3491 42.2832 38.356 42.3262 38.3652C45.4531 39.0073 48.1953 40.7778 50.4673 43.022C51.2568 43.7993 51.9888 44.6328 52.6597 45.499C53.3755 46.4263 54.0532 47.4097 54.6221 48.4097C53.1982 52.0439 50.6831 55.23 47.4951 57.4297C44.6289 59.4531 41.4697 60.5107 38.3174 60.7417C32.5889 61.1577 26.8701 58.8354 22.9155 54.5547C22.8691 54.5063 22.8257 54.458 22.7891 54.416C22.7314 54.353 22.6807 54.2983 22.6387 54.248C22.6167 54.2256 22.5972 54.2031 22.5815 54.1836C22.5576 54.1548 22.5317 54.1274 22.5112 54.103C22.4663 54.0513 22.4263 54.0049 22.3862 53.958C22.3657 53.9355 22.3467 53.9111 22.3271 53.8853C22.3047 53.8594 22.2827 53.832 22.2588 53.8032C22.2427 53.7822 22.2251 53.7627 22.2104 53.7437C22.1646 53.6904 22.1196 53.6353 22.0781 53.582C22.0283 53.5225 21.9966 53.479 21.9966 53.479C21.9756 53.4546 21.9565 53.4307 21.9326 53.3984C21.894 53.3516 21.8608 53.3081 21.8286 53.2661C21.813 53.2485 21.7983 53.2275 21.7822 53.208C21.7759 53.1968 21.7666 53.1855 21.7583 53.1772C21.7012 53.1001 21.6592 53.0435 21.6387 53.0161C21.626 53 21.6147 52.9824 21.5986 52.9629C21.5459 52.8936 21.4946 52.8242 21.4453 52.7534C21.4326 52.7358 21.4165 52.7148 21.4004 52.6938C21.3604 52.6372 21.3364 52.6064 21.3208 52.584C21.3159 52.5776 21.311 52.5728 21.3096 52.5679C21.2983 52.5518 21.2871 52.5371 21.2744 52.5181C21.2661 52.5049 21.2534 52.4907 21.2456 52.4761C21.2119 52.4341 21.1768 52.3794 21.1387 52.3213C21.1147 52.2856 21.0889 52.2471 21.0635 52.21C21.0552 52.1987 21.0508 52.189 21.041 52.1763C20.9771 52.0796 20.9258 52.002 20.8687 51.9102C20.8301 51.8569 20.7949 51.8022 20.7612 51.7471C20.7373 51.707 20.7197 51.6777 20.7056 51.6567C20.6816 51.6182 20.6592 51.5859 20.6416 51.5537C20.6318 51.541 20.624 51.5264 20.6177 51.5132C20.6079 51.502 20.6016 51.4907 20.5952 51.4795C20.5889 51.4683 20.5825 51.46 20.5776 51.4507C20.5615 51.4263 20.5552 51.4116 20.5503 51.4038C20.5503 51.4038 20.5459 51.3955 20.5391 51.3828C20.5327 51.3701 20.5234 51.354 20.5122 51.3408C20.5122 51.3408 20.5107 51.3394 20.5107 51.3359L20.5059 51.3311C20.4976 51.3198 20.4883 51.3052 20.4834 51.2925L20.4756 51.2749C20.4688 51.2666 20.4644 51.2539 20.4595 51.2456C20.4546 51.2358 20.4512 51.228 20.4434 51.2183C20.3955 51.1411 20.3506 51.062 20.3076 50.9863C20.3013 50.9731 20.2915 50.9619 20.2852 50.9473C20.2646 50.9136 20.2471 50.8848 20.2358 50.8652C20.2339 50.8604 20.2246 50.8477 20.2134 50.8247C20.207 50.8135 20.2007 50.8022 20.2007 50.8008C20.1943 50.7876 20.188 50.7764 20.1797 50.7622C20.167 50.7427 20.1558 50.7202 20.1445 50.6978C20.0854 50.5928 20.0264 50.4878 19.9736 50.3799C19.9609 50.3555 19.9463 50.3301 19.9351 50.3105C19.9224 50.2861 19.9111 50.2637 19.8999 50.2412C19.8843 50.2119 19.8682 50.1831 19.8555 50.1543C19.8442 50.1333 19.833 50.1138 19.8252 50.0942C19.7979 50.043 19.7739 49.9912 19.75 49.9395L19.75 49.938C19.7451 49.9331 19.7437 49.9282 19.7422 49.9253C19.7402 49.9204 19.7373 49.917 19.7354 49.9121C19.729 49.8994 19.7227 49.8882 19.7178 49.877C19.6895 49.8169 19.665 49.7656 19.6475 49.7266C19.6348 49.6992 19.6235 49.6753 19.6079 49.6411C19.5947 49.6172 19.584 49.5913 19.5728 49.5674C19.5596 49.5366 19.5439 49.5024 19.5229 49.459C19.5181 49.4463 19.5117 49.4316 19.5054 49.4189C19.4893 49.3896 19.4785 49.3594 19.4653 49.3286C19.4321 49.2593 19.4175 49.2236 19.4146 49.2173C19.293 48.9463 19.2402 48.8174 19.2085 48.7368C19.2065 48.7305 19.2065 48.7305 19.1924 48.6963C19.1748 48.6479 19.1572 48.603 19.1396 48.5625C19.1235 48.5239 19.1094 48.4854 19.0933 48.4463C19.0933 48.4448 19.0933 48.4399 19.0918 48.4385C19.0757 48.4028 19.0645 48.3691 19.0518 48.3335C19.0454 48.3125 19.0356 48.2949 19.0293 48.2773C19.0068 48.2207 18.9907 48.1787 18.978 48.145C18.9448 48.0581 18.9189 47.9888 18.9014 47.9321C18.8965 47.916 18.8901 47.9033 18.8853 47.8901C18.8809 47.8774 18.8774 47.8662 18.8745 47.8564C18.8408 47.7646 18.8071 47.6709 18.7769 47.5776C18.71 47.3872 18.6504 47.1953 18.5898 47L18.5898 46.9951C18.9863 46.0957 19.4414 45.2246 19.9512 44.3882C20.0488 44.2266 20.146 44.0688 20.2485 43.9106C20.25 43.9092 20.2534 43.9058 20.2534 43.9058L20.2534 43.9043C20.8862 42.9224 21.5923 41.9868 22.3672 41.1113C22.7729 40.6504 23.1968 40.207 23.6377 39.7827C23.7461 39.6748 23.855 39.5732 23.9653 39.4697C26.3765 37.2271 29.2651 35.5098 32.4131 34.5342C34.6147 33.8184 36.8633 33.5005 39.0825 33.5361L39.0903 33.5361C44.4531 33.6182 49.6543 35.7627 53.668 39.3569L53.6729 39.3589C53.9717 39.6245 54.2656 39.9004 54.5483 40.1841C54.5996 40.2324 54.6475 40.2827 54.6987 40.334C55.5039 41.147 56.25 42.0239 56.9292 42.9561C57.062 43.1367 57.1914 43.3188 57.3174 43.5044C57.5142 43.7881 57.7012 44.0815 57.8833 44.3765C58.6055 45.665 59.3291 46.9551 60.0513 48.2432C59.834 49.7671 59.6182 51.291 59.4009 52.813C61.2676 50.6572 63.1338 48.5015 65 46.3457C64.9746 43.8252 64.5781 38.3848 61.2212 32.7041C58.4824 28.0698 54.9976 25.3511 52.9761 24L54.5083 33.2251L55.0103 36.2354L55.3071 38.0317C54.8823 37.6284 54.4478 37.2349 53.9956 36.8643C53.0112 36.0518 51.9644 35.3164 50.8687 34.6616C50.3091 34.3276 49.7402 34.0151 49.1572 33.731L49.1558 33.7295C46.2236 32.2754 43.0103 31.4092 39.7153 31.2788C39.4116 31.2676 39.1099 31.2627 38.8062 31.2627C34.4248 31.1934 30.1475 32.4702 26.4355 34.7197C26.0454 34.9565 25.6621 35.2036 25.2852 35.46C24.8521 35.7549 24.4302 36.0693 24.0161 36.3901C24.0181 36.3867 24.021 36.3838 24.0225 36.3804L23.9346 36.4531C23.5625 36.7451 23.1982 37.043 22.8418 37.356C18.895 40.6182 14.9468 43.8799 11 47.1421C11.0273 49.6235 11.4204 55.082 14.7773 60.8398C18.2383 66.7769 22.9697 69.7988 25.1206 71C24.6616 66.8335 24.2017 62.665 23.7432 58.4985C23.7432 58.4971 23.7412 58.4971 23.7412 58.4956C24.8232 59.3481 25.9702 60.0835 27.1689 60.6963C27.5361 60.8804 27.9087 61.0591 28.2871 61.2251Z"
              fill="#FFFFFF" fill-opacity="1.000000" fill-rule="nonzero"/>
    </g>
</svg>
